#!OML:ASF H:\Terrain\Patient Classification 1\Walking\liu\liu.ASF
:FULLY-SPECIFIED
:DEGREES
114
root 18.723480 32.393398 -42.882000 8.362300 7.160340 9.443620
lowerback -16.222759 -6.375820 -11.449620
upperback -2.001860 -7.654960 4.618520
thorax 8.081920 -4.024240 10.361420
lowerneck -38.885399 -10.279620 -26.644400
upperneck 42.940399 -11.725940 21.613400
head 21.741400 -5.036680 10.546380
rclavicle 0.000000 -0.000000
rhumerus -92.838402 18.980400 -168.921402
rradius 71.125603
rwrist -38.770802
rhand -59.004200 -47.876801
rfingers 14.250040
rthumb -5.673160 -107.798599
lclavicle 0.000000 -0.000000
lhumerus -49.840801 -53.304001 185.242004
lradius 84.934402
lwrist 26.080200
lhand -26.162800 -51.045601
lfingers 14.250040
lthumb 26.029600 8.102460
rfemur -80.623802 23.273001 14.578480
rtibia 57.443600
rfoot -45.026001 -17.111641
rtoes -37.275398
lfemur 27.102200 1.123124 -57.972000
ltibia 0.000000
lfoot -28.065201 5.418560
ltoes -6.759560
115
root 18.708040 32.349800 -42.604801 8.463380 8.062760 9.266180
lowerback -16.294260 -6.614000 -11.260400
upperback -1.981600 -7.985340 4.629720
thorax 8.175740 -4.188240 10.217920
lowerneck -38.657799 -10.358040 -26.530001
upperneck 42.620998 -11.901840 21.694799
head 21.604601 -5.101360 10.519460
rclavicle 0.000000 0.000000
rhumerus -92.784798 18.276100 -168.508606
rradius 70.563400
rwrist -38.356602
rhand -58.666199 -46.610199
rfingers 14.250040
rthumb -5.346860 -106.536201
lclavicle 0.000000 0.000000
lhumerus -50.724998 -53.466999 185.824600
lradius 85.227402
lwrist 26.034401
lhand -25.515800 -50.591801
lfingers 14.250040
lthumb 26.653200 8.515940
rfemur -81.192802 24.476601 13.534260
rtibia 56.473598
rfoot -46.902000 -18.888720
rtoes -38.017601
lfemur 28.073601 0.944732 -57.450600
ltibia 0.000000
lfoot -28.761400 4.851180
ltoes -5.702740
116
root 18.685780 32.297798 -42.325199 8.770580 8.324040 9.455600
lowerback -16.687321 -6.737820 -11.441400
upperback -1.925092 -8.104560 4.462520
thorax 8.471000 -4.257760 10.106740
lowerneck -38.876999 -10.247400 -26.266600
upperneck 42.672001 -11.875720 21.973801
head 21.661200 -5.029680 10.586200
rclavicle 0.000000 -0.000000
rhumerus -92.691399 17.710320 -168.354599
rradius 70.161400
rwrist -38.005001
rhand -59.013000 -46.319401
rfingers 14.250040
rthumb -5.681760 -106.240997
lclavicle 0.000000 -0.000000
lhumerus -51.419601 -53.559601 186.223999
lradius 85.148003
lwrist 25.909401
lhand -25.702000 -50.794201
lfingers 14.250040
lthumb 26.473600 8.325140
rfemur -82.083199 24.733200 12.818240
rtibia 55.608200
rfoot -47.374802 -19.973640
rtoes -39.146000
lfemur 28.854401 1.341360 -57.340199
ltibia 0.000000
lfoot -29.620001 4.155160
ltoes -5.267020
117
root 18.657221 32.250401 -42.058201 9.086500 8.751260 9.908880
lowerback -16.681580 -6.684040 -11.852640
upperback -2.083520 -7.986340 4.217620
thorax 8.295940 -4.194120 10.101960
lowerneck -38.513199 -10.170440 -26.427401
upperneck 42.466400 -11.903140 22.565800
head 21.545799 -4.996160 10.828960
rclavicle -0.000000 0.000000
rhumerus -93.198601 16.757780 -167.930405
rradius 69.909401
rwrist -37.836201
rhand -58.998402 -45.537800
rfingers 14.250040
rthumb -5.667680 -105.459602
lclavicle -0.000000 0.000000
lhumerus -52.209202 -53.998199 187.184204
lradius 84.773003
lwrist 25.526800
lhand -25.818399 -50.980000
lfingers 14.250040
lthumb 26.361601 8.146620
rfemur -82.915001 24.749201 11.797960
rtibia 54.932400
rfoot -47.674801 -20.744600
rtoes -39.188202
lfemur 29.688400 1.554326 -57.483601
ltibia -0.000000
lfoot -30.325800 3.439220
ltoes -5.051440
118
root 18.631140 32.214199 -41.786800 8.939720 9.710540 10.428560
lowerback -16.040939 -6.798660 -12.390480
upperback -2.164860 -8.125840 4.102980
thorax 7.900320 -4.257900 10.300380
lowerneck -38.353600 -10.278420 -26.845800
upperneck 42.514400 -12.031820 22.875999
head 21.577400 -5.059000 11.000480
rclavicle 0.000000 -0.000000
rhumerus -93.400398 16.035259 -167.533600
rradius 69.126404
rwrist -36.995602
rhand -59.377998 -45.008801
rfingers 14.250040
rthumb -6.034300 -104.925598
lclavicle 0.000000 -0.000000
lhumerus -53.493198 -54.341202 188.371994
lradius 84.920799
lwrist 25.077400
lhand -25.003401 -50.373600
lfingers 14.250040
lthumb 27.146999 8.701420
rfemur -82.965599 24.984800 10.543860
rtibia 54.432598
rfoot -48.604000 -21.819799
rtoes -38.459999
lfemur 31.035999 1.302908 -57.617599
ltibia -0.000000
lfoot -30.694000 2.665600
ltoes -4.135000
119
root 18.611380 32.197601 -41.501400 9.034300 10.530480 10.891240
lowerback -15.984480 -7.088620 -12.860600
upperback -2.153760 -8.474920 4.110540
thorax 7.963620 -4.441200 10.529600
lowerneck -38.541401 -10.496700 -27.484400
upperneck 42.745800 -12.191580 23.091000
head 21.753000 -5.156920 11.174340
rclavicle -0.000000 0.000000
rhumerus -93.481400 16.419680 -167.704605
rradius 68.644203
rwrist -36.104401
rhand -60.553001 -46.516399
rfingers 14.250040
rthumb -7.168860 -106.415604
lclavicle -0.000000 0.000000
lhumerus -54.959202 -54.492401 189.351807
lradius 85.342003
lwrist 24.840200
lhand -24.284800 -49.775002
lfingers 14.250040
lthumb 27.839600 9.253100
rfemur -83.118599 24.888399 9.582900
rtibia 53.986801
rfoot -48.847801 -22.656200
rtoes -37.257000
lfemur 32.057800 1.158182 -57.730999
ltibia 0.000000
lfoot -30.744801 2.275040
ltoes -5.683540
120
root 18.585680 32.180599 -41.214802 9.577520 10.959780 10.727800
lowerback -16.501619 -7.141260 -12.676740
upperback -2.281480 -8.534540 4.227240
thorax 8.122780 -4.469560 10.517280
lowerneck -38.249001 -10.640480 -27.888599
upperneck 42.519600 -12.330600 23.239000
head 21.655399 -5.243600 11.270200
rclavicle -0.000000 0.000000
rhumerus -94.143997 16.236420 -167.307800
rradius 68.878601
rwrist -36.076401
rhand -60.079399 -46.915401
rfingers 14.250040
rthumb -6.711520 -106.821999
lclavicle -0.000000 0.000000
lhumerus -55.947399 -54.578800 190.391403
lradius 84.896797
lwrist 24.514400
lhand -23.951401 -49.247601
lfingers 14.250040
lthumb 28.160999 9.758380
rfemur -83.857399 25.155001 9.210320
rtibia 53.554600
rfoot -48.325001 -24.431601
rtoes -40.234798
lfemur 32.522800 1.350950 -57.157799
ltibia -0.000000
lfoot -30.930401 1.855202
ltoes -7.370360
121
root 18.552280 32.148201 -40.931000 9.878680 11.474320 10.357940
lowerback -16.652260 -7.232080 -12.399200
upperback -2.270860 -8.675500 4.335720
thorax 8.226120 -4.539420 10.447060
lowerneck -38.466400 -10.587980 -27.460800
upperneck 42.535000 -12.292720 22.983999
head 21.672199 -5.213220 11.105360
rclavicle -0.000000 -0.000000
rhumerus -94.176804 15.149320 -166.326202
rradius 68.703201
rwrist -36.362000
rhand -58.474800 -45.615799
rfingers 14.250040
rthumb -5.162020 -105.543999
lclavicle -0.000000 -0.000000
lhumerus -56.326000 -53.974201 190.988403
lradius 83.895599
lwrist 23.812000
lhand -23.163601 -48.393799
lfingers 14.250040
lthumb 28.919800 10.558580
rfemur -84.243599 25.281000 9.286860
rtibia 53.031601
rfoot -50.174801 -26.963200
rtoes -44.173599
lfemur 33.187801 1.493992 -56.271999
ltibia 0.000000
lfoot -31.145201 1.223810
ltoes -8.178640
122
root 18.517719 32.096600 -40.650200 10.025660 12.121800 10.540640
lowerback -16.480780 -7.476260 -12.649980
upperback -2.223540 -8.984900 4.253640
thorax 8.235960 -4.698100 10.466700
lowerneck -38.928799 -10.576520 -26.716600
upperneck 42.762402 -12.312180 22.402201
head 21.799000 -5.215060 10.759100
rclavicle 0.000000 0.000000
rhumerus -93.884399 14.801860 -166.310806
rradius 68.135803
rwrist -37.527401
rhand -59.052799 -44.891800
rfingers 14.250040
rthumb -5.720200 -104.813004
lclavicle 0.000000 0.000000
lhumerus -56.961601 -53.085201 191.358795
lradius 83.082397
lwrist 22.849001
lhand -22.173800 -48.264000
lfingers 14.250040
lthumb 29.873600 10.618780
rfemur -84.232201 24.627800 9.166720
rtibia 52.395199
rfoot -49.809399 -27.383801
rtoes -44.775200
lfemur 34.021599 1.497990 -55.974800
ltibia 0.000000
lfoot -30.940201 0.773910
ltoes -8.882320
123
root 18.480680 32.049400 -40.361198 10.453060 12.401380 10.938520
lowerback -16.540119 -7.531220 -13.043600
upperback -2.368740 -9.016360 4.147660
thorax 8.142660 -4.711800 10.573920
lowerneck -39.070599 -10.703700 -26.535400
upperneck 42.852200 -12.479460 22.178400
head 21.868999 -5.298420 10.617900
rclavicle -0.000000 0.000000
rhumerus -94.032402 14.619300 -166.482407
rradius 67.571198
rwrist -38.073399
rhand -60.158600 -45.209599
rfingers 14.250040
rthumb -6.788120 -105.114998
lclavicle -0.000000 0.000000
lhumerus -58.039200 -52.732601 192.194000
lradius 82.269798
lwrist 21.922001
lhand -21.882601 -48.711601
lfingers 14.250040
lthumb 30.154200 10.150240
rfemur -84.545601 23.617599 9.092100
rtibia 52.008999
rfoot -49.275200 -26.666599
rtoes -43.804199
lfemur 34.681400 1.810372 -55.953201
ltibia -0.000000
lfoot -30.802401 0.456088
ltoes -10.882680
124
root 18.442579 32.028999 -40.060799 10.829960 12.684440 10.792280
lowerback -16.776220 -7.554400 -12.893200
upperback -2.359020 -9.047600 4.204100
thorax 8.282300 -4.729700 10.530540
lowerneck -39.073799 -10.747620 -26.538200
upperneck 42.414799 -12.502780 22.171400
head 21.712200 -5.306320 10.596840
rclavicle -0.000000 -0.000000
rhumerus -94.159798 13.836380 -165.841995
rradius 67.313004
rwrist -36.414600
rhand -59.440601 -46.556000
rfingers 14.250040
rthumb -6.094600 -106.472000
lclavicle -0.000000 -0.000000
lhumerus -58.847801 -52.392399 192.933395
lradius 81.439796
lwrist 21.235399
lhand -22.201000 -48.643002
lfingers 14.250040
lthumb 29.847401 10.241720
rfemur -84.910202 22.565800 9.809840
rtibia 52.127800
rfoot -48.441601 -26.444401
rtoes -43.199402
lfemur 35.459999 2.145180 -55.297199
ltibia -0.000000
lfoot -30.842800 -0.043334
ltoes -12.799540
125
root 18.406281 32.011002 -39.757801 10.925780 13.401000 10.750840
lowerback -16.670679 -7.607900 -12.713440
upperback -2.350040 -9.139700 4.157840
thorax 8.227980 -4.770580 10.373060
lowerneck -38.887199 -10.856640 -26.546400
upperneck 42.098801 -12.615740 22.024799
head 21.572201 -5.378060 10.514180
rclavicle -0.000000 -0.000000
rhumerus -94.462196 12.853860 -165.319595
rradius 67.101799
rwrist -36.082600
rhand -59.326401 -45.997601
rfingers 14.250040
rthumb -5.984440 -105.915001
lclavicle -0.000000 -0.000000
lhumerus -59.786800 -52.188400 193.792007
lradius 80.436401
lwrist 20.589600
lhand -22.643999 -48.629002
lfingers 14.250040
lthumb 29.420401 10.287180
rfemur -84.874001 21.817600 10.144900
rtibia 52.522400
rfoot -48.091202 -26.528000
rtoes -41.364799
lfemur 36.455601 2.078360 -54.681400
ltibia -0.000000
lfoot -30.449800 -0.809162
ltoes -12.070020
